<svg width="18" height="20" viewBox="0 0 18 20" fill="none" xmlns="http://www.w3.org/2000/svg">
<path fill-rule="evenodd" clip-rule="evenodd" d="M11.9033 16.5498C11.752 18.2042 10.3608 19.5 8.66699 19.5C6.97315 19.5 5.58198 18.2042 5.43066 16.5498H11.9033ZM8.66699 0C12.855 -1.04904e-05 16.2498 3.39499 16.25 7.58301V11.6162C16.2501 11.8085 16.327 11.9928 16.4629 12.1289L16.8848 12.5518C17.0135 12.6805 17.0795 12.7458 17.1309 12.8174C17.2281 12.9529 17.2923 13.1089 17.3193 13.2734C17.3336 13.3606 17.333 13.452 17.333 13.6348C17.333 14.0524 17.3332 14.2612 17.2764 14.4297C17.1847 14.7015 16.9898 14.9226 16.7373 15.0498H0.597656C0.344873 14.9226 0.149357 14.7016 0.0576172 14.4297C0.000793844 14.2612 0 14.0524 0 13.6348C0 13.452 0.000348866 13.3606 0.0146484 13.2734C0.0416584 13.1089 0.105916 12.9529 0.203125 12.8174C0.254618 12.7457 0.320024 12.681 0.449219 12.5518L0.871094 12.1289C1.00699 11.9928 1.08392 11.8085 1.08398 11.6162V7.58301C1.08416 3.39501 4.47895 1.04904e-05 8.66699 0Z" fill="#B2B3B6"/>
</svg>
