<svg width="50" height="50" viewBox="0 0 50 50" fill="none" xmlns="http://www.w3.org/2000/svg">
<mask id="mask0_291_1685" style="mask-type:alpha" maskUnits="userSpaceOnUse" x="0" y="0" width="50" height="50">
<rect width="50" height="50" fill="white"/>
</mask>
<g mask="url(#mask0_291_1685)">
<path d="M14.7784 39.0444C16.9505 40.3337 19.4706 41.0714 22.1582 41.0714C30.328 41.0714 36.9516 34.2548 36.9516 25.8459C36.9516 17.4371 30.3286 10.6204 22.1588 10.6204C13.9889 10.6204 7.36597 17.4371 7.36597 25.8459C7.36597 28.6121 8.08267 31.206 9.33537 33.4416L9.34022 33.4502C9.46076 33.6653 9.52154 33.7738 9.54907 33.8763C9.57504 33.973 9.58229 34.0599 9.57564 34.16C9.5685 34.2675 9.53328 34.379 9.46109 34.6019L8.19742 38.5038L8.19583 38.509C7.92921 39.3322 7.7959 39.7439 7.89092 40.0181C7.97378 40.2573 8.15769 40.446 8.39004 40.5313C8.65593 40.6289 9.05407 40.4923 9.85041 40.2191L9.86033 40.2153L13.6513 38.9147C13.8672 38.8406 13.9769 38.8031 14.0812 38.7957C14.1785 38.7889 14.2623 38.7979 14.3563 38.8246C14.4561 38.853 14.5616 38.9156 14.7716 39.0403L14.7784 39.0444Z" fill="#B5B5B5"/>
<path d="M37.7609 31.036C36.0715 32.0389 34.1114 32.6126 32.0211 32.6126C25.6667 32.6126 20.5151 27.3108 20.5151 20.7706C20.5151 14.2304 25.6663 8.92847 32.0206 8.92847C38.3749 8.92847 43.5261 14.2304 43.5261 20.7706C43.5261 22.922 42.9687 24.9395 41.9944 26.6783L41.9906 26.685C41.8968 26.8523 41.8496 26.9367 41.8282 27.0164C41.808 27.0916 41.8023 27.1592 41.8075 27.2371C41.813 27.3207 41.8404 27.4074 41.8966 27.5808L42.8794 30.6156L42.8807 30.6196C43.088 31.2599 43.1917 31.5801 43.1178 31.7934C43.0534 31.9794 42.9103 32.1262 42.7296 32.1925C42.5228 32.2685 42.2132 32.1622 41.5938 31.9497L41.5861 31.9468L38.6375 30.9352C38.4696 30.8776 38.3843 30.8484 38.3031 30.8426C38.2275 30.8373 38.1623 30.8443 38.0892 30.8651C38.0115 30.8872 37.9295 30.9359 37.7662 31.0329L37.7609 31.036Z" fill="#D9D9D9"/>
<circle cx="26.4458" cy="20.7708" r="1" fill="#9A9A9A"/>
<circle cx="32.4458" cy="20.7708" r="1" fill="#9A9A9A"/>
<circle cx="38.4458" cy="20.7708" r="1" fill="#9A9A9A"/>
</g>
</svg>
