<svg width="33" height="33" viewBox="0 0 33 33" fill="none" xmlns="http://www.w3.org/2000/svg">
<mask id="mask0_304_3105" style="mask-type:alpha" maskUnits="userSpaceOnUse" x="0" y="0" width="33" height="33">
<rect width="33" height="33" fill="black"/>
</mask>
<g mask="url(#mask0_304_3105)">
<path d="M26.8854 22.122C26.8854 22.1229 26.8846 22.1237 26.8837 22.1237H26.8813C26.8803 22.1237 26.8799 22.125 26.8808 22.1256C26.8815 22.126 26.8815 22.1271 26.8807 22.1274L16.9278 26.8427C16.6568 26.9711 16.3425 26.9711 16.0715 26.8427L6.11958 22.1274C6.11883 22.1271 6.11878 22.126 6.11949 22.1256C6.1204 22.125 6.12001 22.1237 6.11896 22.1237H6.11659C6.11566 22.1237 6.1149 22.1229 6.1149 22.122V16.9371C6.1149 16.3848 6.56261 15.9371 7.1149 15.9371H25.8854C26.4377 15.9371 26.8854 16.3848 26.8854 16.9371V22.122Z" fill="#B5B5B5"/>
<path d="M16.0706 6.53204C16.3423 6.40284 16.6577 6.40284 16.9294 6.53204L30.4408 12.9569C31.2015 13.3186 31.2016 14.4013 30.4408 14.7631L16.9294 21.1879C16.6577 21.3171 16.3423 21.3171 16.0706 21.1879L2.5592 14.7631C1.79845 14.4013 1.79845 13.3186 2.5592 12.9569L16.0706 6.53204Z" fill="#D9D9D9"/>
<path d="M30.2301 13.86H31.4973V17.028C31.4973 17.3779 31.2136 17.6616 30.8637 17.6616C30.5138 17.6616 30.2301 17.3779 30.2301 17.028V13.86Z" fill="#D9D9D9"/>
</g>
</svg>
