<svg width="50" height="50" viewBox="0 0 50 50" fill="none" xmlns="http://www.w3.org/2000/svg">
<mask id="mask0_291_1702" style="mask-type:alpha" maskUnits="userSpaceOnUse" x="0" y="0" width="50" height="50">
<rect width="50" height="50" fill="white"/>
</mask>
<g mask="url(#mask0_291_1702)">
<path d="M38.6387 12.764C38.5584 12.2817 38.1412 11.9282 37.6523 11.9282H11.4482C10.8304 11.9282 10.3604 12.4829 10.4618 13.0924L14.757 38.8967C14.8373 39.379 15.2545 39.7325 15.7435 39.7325H41.9475C42.5653 39.7325 43.0353 39.1778 42.9339 38.5683L38.6387 12.764Z" fill="#B5B5B5"/>
<path d="M9.96893 13.2635C10.0207 12.7466 10.4597 12.3554 10.9791 12.3632L36.7306 12.7538C37.3225 12.7628 37.7771 13.2811 37.7087 13.8692L34.805 38.8478C34.7464 39.352 34.3193 39.7324 33.8117 39.7324H8.4242C7.83254 39.7324 7.37024 39.2215 7.42918 38.6327L9.96893 13.2635Z" fill="#D9D9D9"/>
<path d="M9.98344 12.3682C10.0138 12.1171 10.2269 11.9282 10.4798 11.9282H37.5065C37.8071 11.9282 38.0397 12.1915 38.0027 12.4898L37.4447 16.9835H9.42554L9.98344 12.3682Z" fill="#B5B5B5"/>
<path d="M18.6935 11.9279C18.6935 11.5113 18.5946 11.1041 18.4095 10.7577C18.2243 10.4113 17.9611 10.1413 17.6532 9.98187C17.3453 9.82244 17.0065 9.78073 16.6796 9.86201C16.3527 9.94328 16.0525 10.1439 15.8168 10.4385C15.5811 10.7331 15.4206 11.1084 15.3556 11.517C15.2906 11.9256 15.324 12.3491 15.4515 12.734C15.5791 13.1189 15.795 13.4479 16.0722 13.6793C16.3493 13.9108 16.6751 14.0343 17.0084 14.0343" stroke="#D9D9D9" stroke-width="1.5"/>
<path d="M32.1744 11.9279C32.1744 11.5113 32.0756 11.1041 31.8904 10.7577C31.7053 10.4113 31.4421 10.1413 31.1342 9.98187C30.8263 9.82245 30.4874 9.78073 30.1606 9.86201C29.8337 9.94328 29.5334 10.1439 29.2978 10.4385C29.0621 10.7331 28.9016 11.1084 28.8366 11.517C28.7716 11.9256 28.8049 12.3491 28.9325 12.734C29.06 13.1189 29.276 13.4479 29.5531 13.6793C29.8302 13.9108 30.156 14.0343 30.4893 14.0343" stroke="#D9D9D9" stroke-width="1.5"/>
</g>
</svg>
