<svg width="294" height="171" viewBox="0 0 294 171" fill="none" xmlns="http://www.w3.org/2000/svg">
<rect width="294" height="171" fill="none"/>
<path d="M99.6 90.248C100.325 91.6347 101.115 92.6373 101.968 93.256C102.843 93.8533 103.749 94.152 104.688 94.152C106.117 94.152 107.205 93.8533 107.952 93.256C108.699 92.6373 109.072 91.8053 109.072 90.76C109.072 90.12 108.869 89.576 108.464 89.128C108.059 88.68 107.547 88.3173 106.928 88.04C106.331 87.7413 105.488 87.4 104.4 87.016C102.907 86.4827 101.68 85.9707 100.72 85.48C99.7813 84.968 98.9707 84.2533 98.288 83.336C97.6267 82.3973 97.296 81.192 97.296 79.72C97.296 78.376 97.6267 77.224 98.288 76.264C98.9707 75.2827 99.8987 74.5253 101.072 73.992C102.267 73.4587 103.632 73.2027 105.168 73.224C106.171 73.224 107.163 73.4267 108.144 73.832C109.125 74.2373 110.021 74.8667 110.832 75.72C111.664 76.552 112.315 77.608 112.784 78.888L109.136 80.2C108.667 78.984 108.08 78.1093 107.376 77.576C106.693 77.0427 105.947 76.7653 105.136 76.744C104.368 76.744 103.696 76.872 103.12 77.128C102.565 77.384 102.139 77.736 101.84 78.184C101.563 78.6107 101.424 79.1227 101.424 79.72C101.424 80.36 101.627 80.9147 102.032 81.384C102.437 81.832 102.949 82.216 103.568 82.536C104.208 82.8347 105.072 83.1867 106.16 83.592C107.653 84.1893 108.859 84.744 109.776 85.256C110.715 85.7467 111.515 86.4507 112.176 87.368C112.837 88.264 113.168 89.4053 113.168 90.792C113.168 92.1573 112.816 93.3627 112.112 94.408C111.429 95.432 110.448 96.2427 109.168 96.84C107.888 97.416 106.384 97.6933 104.656 97.672C102.928 97.672 101.349 97.192 99.92 96.232C98.4907 95.272 97.264 93.9173 96.24 92.168L99.6 90.248ZM123.575 94.056C124.3 94.056 124.929 93.8853 125.463 93.544C126.017 93.1813 126.433 92.6693 126.711 92.008C127.009 91.3253 127.159 90.536 127.159 89.64C127.159 88.744 127.009 87.9653 126.711 87.304C126.433 86.6213 126.017 86.0987 125.463 85.736C124.929 85.3733 124.3 85.192 123.575 85.192C122.871 85.192 122.22 85.3947 121.623 85.8C121.047 86.184 120.588 86.7173 120.247 87.4C119.905 88.0827 119.735 88.8293 119.735 89.64C119.735 90.4507 119.905 91.1973 120.247 91.88C120.588 92.5627 121.047 93.096 121.623 93.48C122.22 93.864 122.871 94.056 123.575 94.056ZM124.023 81.8C125.452 81.8 126.711 82.1413 127.799 82.824C128.908 83.4853 129.761 84.4133 130.359 85.608C130.977 86.7813 131.287 88.1253 131.287 89.64C131.287 91.176 130.977 92.5413 130.359 93.736C129.761 94.9093 128.908 95.8267 127.799 96.488C126.711 97.1493 125.452 97.48 124.023 97.48C123.66 97.48 123.223 97.416 122.711 97.288C122.199 97.16 121.665 96.9253 121.111 96.584C120.556 96.2427 120.076 95.784 119.671 95.208L119.735 94.664V104.136H115.607V81.832H119.735V84.488L119.671 84.072C120.247 83.2827 120.961 82.7067 121.815 82.344C122.689 81.9813 123.425 81.8 124.023 81.8ZM139.494 97.544C138.064 97.544 136.806 97.2133 135.718 96.552C134.63 95.8693 133.776 94.9413 133.158 93.768C132.56 92.5733 132.261 91.2187 132.261 89.704C132.261 88.1893 132.56 86.8453 133.158 85.672C133.776 84.4773 134.63 83.5493 135.718 82.888C136.806 82.2267 138.064 81.896 139.494 81.896C140.304 81.896 141.104 82.088 141.894 82.472C142.704 82.8347 143.376 83.4 143.91 84.168L143.75 84.392V81.864H147.878V97.448H143.75V95.016L143.91 95.272C143.547 95.8053 143.11 96.2427 142.598 96.584C142.107 96.904 141.595 97.1387 141.062 97.288C140.528 97.4587 140.006 97.544 139.494 97.544ZM139.974 94.12C140.656 94.12 141.286 93.928 141.862 93.544C142.438 93.16 142.896 92.6373 143.238 91.976C143.6 91.2933 143.782 90.536 143.782 89.704C143.782 88.872 143.6 88.1253 143.238 87.464C142.896 86.7813 142.438 86.248 141.862 85.864C141.286 85.48 140.656 85.288 139.974 85.288C139.248 85.288 138.608 85.4693 138.054 85.832C137.52 86.1947 137.104 86.7067 136.806 87.368C136.528 88.0293 136.39 88.808 136.39 89.704C136.39 90.6213 136.528 91.4107 136.806 92.072C137.104 92.7333 137.52 93.2453 138.054 93.608C138.608 93.9493 139.248 94.12 139.974 94.12ZM153.687 84.936C153.985 84.2747 154.401 83.7093 154.935 83.24C155.489 82.7493 156.076 82.3867 156.695 82.152C157.335 81.9173 157.953 81.8213 158.551 81.864V85.576C157.676 85.512 156.908 85.6933 156.247 86.12C155.585 86.5467 155.073 87.1013 154.711 87.784C154.348 88.4667 154.167 89.16 154.167 89.864V97.448H150.071V81.864H154.167V85.064L153.687 84.936ZM164.38 87.4L169.18 81.864H174.748L168.572 88.872L174.364 97.448H169.404L165.596 91.912L164.38 93.352V97.448H160.252V74.312H164.38V87.4ZM180.677 93.832H191.141V97.416H176.549V73.48H180.677V93.832ZM214.867 97.416H210.483L208.211 91.144H198.963L196.595 97.416H192.211L201.139 73.48H206.131L214.867 97.416ZM206.899 87.592L203.635 78.632L200.275 87.592H206.899ZM216.554 73.48H220.682V83.336H226.122C226.932 83.336 227.711 83.4853 228.458 83.784C229.204 84.0827 229.908 84.456 230.57 84.904C231.444 85.48 232.159 86.2907 232.714 87.336C233.29 88.3813 233.578 89.4373 233.578 90.504C233.578 91.8267 233.3 93.0107 232.746 94.056C232.191 95.1013 231.412 95.9227 230.41 96.52C229.407 97.1173 228.276 97.416 227.018 97.416H216.554V73.48ZM226.378 93.832C227.316 93.832 228.063 93.5333 228.618 92.936C229.194 92.3387 229.482 91.528 229.482 90.504C229.482 89.416 229.194 88.5413 228.618 87.88C228.063 87.2187 227.316 86.888 226.378 86.888H220.682V93.832H226.378ZM224.714 83.336C225.546 83.3147 226.207 83.0267 226.698 82.472C227.21 81.9173 227.466 81.192 227.466 80.296C227.466 79.3147 227.199 78.5253 226.666 77.928C226.132 77.3307 225.407 77.032 224.49 77.032H216.554V73.48H225.002C226.26 73.48 227.38 73.7573 228.362 74.312C229.364 74.8453 230.143 75.6133 230.698 76.616C231.274 77.5973 231.562 78.7173 231.562 79.976C231.562 80.8293 231.327 81.7147 230.858 82.632C230.41 83.528 229.823 84.2747 229.098 84.872L224.714 83.336Z" fill="black"/>
<g filter="url(#filter0_ii_480_158)">
<path d="M85.7744 72.8262C83.4943 76.6264 83.4943 81.3736 85.7744 85.1738L88.0693 89L84.2432 86.7041C82.3205 85.5506 80.1554 84.9814 77.9932 84.9951L77.6943 105.065L70.6953 104.961L70.9033 90.9541L56.8623 104.518L54.4316 102L52 99.4824L65.7832 86.1699L52.1094 86.375L52.0039 79.376L72.0732 79.0762C72.087 76.9139 71.5188 74.7488 70.3652 72.8262L68.0693 69L71.8955 71.2959C75.6956 73.5759 80.443 73.5758 84.2432 71.2959L88.0693 69L85.7744 72.8262Z" fill="url(#paint0_radial_480_158)"/>
</g>
<circle cx="235.25" cy="71.25" r="2.25" fill="url(#paint1_linear_480_158)"/>
<defs>
<filter id="filter0_ii_480_158" x="52" y="69" width="36.0693" height="46.0654" filterUnits="userSpaceOnUse" color-interpolation-filters="sRGB">
<feFlood flood-opacity="0" result="BackgroundImageFix"/>
<feBlend mode="normal" in="SourceGraphic" in2="BackgroundImageFix" result="shape"/>
<feColorMatrix in="SourceAlpha" type="matrix" values="0 0 0 0 0 0 0 0 0 0 0 0 0 0 0 0 0 0 127 0" result="hardAlpha"/>
<feOffset dy="11"/>
<feGaussianBlur stdDeviation="5"/>
<feComposite in2="hardAlpha" operator="arithmetic" k2="-1" k3="1"/>
<feColorMatrix type="matrix" values="0 0 0 0 0.911965 0 0 0 0 0.669871 0 0 0 0 1 0 0 0 0.2 0"/>
<feBlend mode="normal" in2="shape" result="effect1_innerShadow_480_158"/>
<feColorMatrix in="SourceAlpha" type="matrix" values="0 0 0 0 0 0 0 0 0 0 0 0 0 0 0 0 0 0 127 0" result="hardAlpha"/>
<feOffset/>
<feGaussianBlur stdDeviation="2"/>
<feComposite in2="hardAlpha" operator="arithmetic" k2="-1" k3="1"/>
<feColorMatrix type="matrix" values="0 0 0 0 1 0 0 0 0 1 0 0 0 0 1 0 0 0 0.5 0"/>
<feBlend mode="normal" in2="effect1_innerShadow_480_158" result="effect2_innerShadow_480_158"/>
</filter>
<radialGradient id="paint0_radial_480_158" cx="0" cy="0" r="1" gradientUnits="userSpaceOnUse" gradientTransform="translate(70.0347 87.0327) rotate(90) scale(18.0327 18.0347)">
<stop stop-color="#00FF85"/>
<stop offset="1" stop-color="#A3FF12"/>
</radialGradient>
<linearGradient id="paint1_linear_480_158" x1="235.25" y1="69" x2="235.25" y2="73.5" gradientUnits="userSpaceOnUse">
<stop stop-color="#00FF85"/>
<stop offset="1" stop-color="#A3FF12"/>
</linearGradient>
</defs>
</svg>
